<?xml version="1.0" encoding="utf-8"?>
<!-- Generator: Adobe Illustrator 17.0.1, SVG Export Plug-In . SVG Version: 6.00 Build 0)  -->
<!DOCTYPE svg PUBLIC "-//W3C//DTD SVG 1.1//EN" "http://www.w3.org/Graphics/SVG/1.1/DTD/svg11.dtd">
<svg version="1.1" id="Layer_1" xmlns="http://www.w3.org/2000/svg" xmlns:xlink="http://www.w3.org/1999/xlink" x="0px" y="0px"
	 viewBox="0 0 600 800" enable-background="new 0 0 600 800" xml:space="preserve">
<g>
	<g>
		<path fill="#FFFF00" d="M275.667,390.25c11,0.5,16,1,25-6.5"/>
		<g>
			<path fill="#FFFFFF" d="M275.667,391.824c10.361,0.477,17.821-0.271,26.113-6.961c1.58-1.275-0.662-3.487-2.226-2.226
				c-7.553,6.094-14.559,6.469-23.887,6.039C273.637,388.583,273.646,391.731,275.667,391.824L275.667,391.824z"/>
		</g>
	</g>
	<g>
		<path fill="#FFFF00" d="M300.167,384.25c-9-26.5,33.5-40,16-66c-9.5-13.5-21.5-20-37-12c-12.5,6.5-21.5,21-17.5,36.5
			c2,8,10,14.5,13.5,22c2.5,6.5,3.5,13.5,3.5,20.5"/>
		<g>
			<path fill="#FFFFFF" d="M301.684,383.832c-4.939-15.614,8.486-26.971,15.861-39.068c3.115-5.109,5.287-11.218,4.185-17.26
				c-1.467-8.047-7.318-15.539-13.7-20.417c-16.261-12.429-37.457-2.41-45.794,14.534c-4.206,8.548-4.156,18.977,0.344,27.354
				c2.687,5.003,6.791,9.167,9.823,13.96c4.009,6.336,4.602,15.035,4.69,22.315c0.025,2.028,3.172,2.031,3.147,0
				c-0.121-9.985-1.79-19.499-7.704-27.716c-2.733-3.797-5.725-7.329-7.949-11.469c-2.863-5.331-2.748-12.076-1.422-17.804
				c2.422-10.461,11.045-18.679,20.822-22.415c10.581-4.044,20.143,0.8,27.262,8.657c5.283,5.83,8.91,12.932,7.017,20.884
				c-1.463,6.144-5.749,11.483-9.432,16.452c-7.265,9.8-14.187,20.177-10.185,32.83
				C299.259,386.596,302.298,385.772,301.684,383.832L301.684,383.832z"/>
		</g>
	</g>
	<g>
		<g>
			<path fill="#FFFF00" d="M286.74,288.25c0.119-7.77,1.973-15.974-1.056-23.418c-0.754-1.854-3.8-1.044-3.035,0.837
				c2.912,7.157,1.059,15.106,0.944,22.582C283.562,290.281,286.709,290.278,286.74,288.25L286.74,288.25z"/>
		</g>
	</g>
	<g>
		<g>
			<path fill="#FFFF00" d="M257.461,304.891c-5.227-3.438-9.079-8.222-12.435-13.435c-1.094-1.7-3.82-0.124-2.718,1.589
				c3.653,5.676,7.879,10.825,13.565,14.565C257.574,308.728,259.149,306.001,257.461,304.891L257.461,304.891z"/>
		</g>
	</g>
	<g>
		<g>
			<path fill="#FFFF00" d="M323.461,303.109c4.338-3.196,9.236-5.787,12.065-10.565c1.036-1.751-1.685-3.333-2.718-1.589
				c-2.529,4.272-7.057,6.578-10.935,9.435C320.257,301.581,321.824,304.315,323.461,303.109L323.461,303.109z"/>
		</g>
	</g>
	<rect x="90.75" y="458.75" fill="none" width="402.5" height="78"/>
	
		<text transform="matrix(1 0 0 1 91.3271 489.1152)" fill="#FFFFFF" stroke="#FFFFFF" stroke-miterlimit="10" font-family="'ACaslonPro-Regular'" font-size="42">DCFS Training Center</text>
	<g>
		<g>
			<path fill="#FFFFFF" d="M186.522,346.012c0.055-9.806,15.317-9.136,21.758-9.431c8.866-0.407,21.24-0.572,24.721-10.581
				c0.521-1.498-0.513-3.526,0-5c-6.781,19.501-46.398,0.385-46.522,22.488C186.474,344.239,186.504,349.076,186.522,346.012
				L186.522,346.012z"/>
		</g>
	</g>
	<g>
		<g>
			<path fill="#FFFFFF" d="M223,355.75c5.99-5.61,14.159-7.428,17.25-15.75c2.062-5.552,0.428-13.435-0.25-19
				c0.2,1.637-0.201,3.354,0,5c0.454,3.724,1.076,6.775-0.266,10.39c-0.894,2.408-2.656,4.337-4.562,5.983
				c-3.752,3.241-8.512,4.949-12.171,8.377C222.149,351.547,223.811,354.991,223,355.75L223,355.75z"/>
		</g>
	</g>
	<g>
		<g>
			<path fill="#FFFFFF" d="M358.5,358.75c-5.914-0.046-10.128-5.883-13.241-10.229c-3.981-5.559-7.544-11.63-8.143-18.559
				c0.007,0.413,0.014,0.825,0.022,1.238c-0.003-0.541-0.006-1.082-0.01-1.622c-0.007,1.254-0.014,2.508-0.022,3.762
				c0.04-1.124,0.171-2.237,0.393-3.339c0.259-1.631-0.257-3.381,0-5c-1.135,7.154-0.415,14.245,2.902,20.749
				c3.302,6.476,9.813,17.936,18.098,18.001C358.525,363.75,358.551,358.75,358.5,358.75L358.5,358.75z"/>
		</g>
	</g>
	<g>
		<g>
			<path fill="#FFFFFF" d="M396.007,348.589c-0.295-12.114-8.438-16.641-19.757-16.339c-12.059,0.322-24.01,4.009-31.75-8
				c0.747,1.16-0.77,3.806,0,5c7.221,11.205,18.867,9.077,30.416,8.095c11.552-0.983,20.773,3.561,21.077,16.066
				C395.965,352.231,396.043,350.096,396.007,348.589L396.007,348.589z"/>
		</g>
	</g>
	<g>
		<g>
			<path fill="#FFFFFF" d="M363.75,365.5c-4.512,4.02-6.812,9.845-9.438,15.151c-3.066,6.194-7.483,11.324-12.777,15.734
				c-5.814,4.843-12.956,8.081-19.562,11.67c-3.902,2.121-12.66,5.119-12.853,10.448c-0.073,2.018-0.457,4.709,0.54,6.533
				c2.073,3.791,14.467,0.198,17.106-0.557c6.875-1.965,13.652-5.521,19.438-9.69c5.672-4.087,10.389-9.533,16.797-12.539
				c0.671-0.315-0.609-4.714,0-5c-4.469,2.096-8.152,5.412-11.888,8.578c-4.542,3.849-9.266,6.983-14.569,9.692
				c-5.685,2.904-11.791,4.945-18.144,5.638c-2.913,0.317-8.646,1.131-9.273-2.743c0,1.667,0,3.333,0,5
				c0.575-5.398,8.745-8.086,12.847-10.359c6.656-3.689,13.528-6.979,19.562-11.67c5.411-4.207,9.677-9.66,12.777-15.734
				c2.704-5.297,4.898-11.106,9.438-15.151C364.598,369.744,362.944,366.218,363.75,365.5L363.75,365.5z"/>
		</g>
	</g>
	<g>
		<g>
			<path fill="#FFFFFF" d="M330,421.5c-0.228,2.166-0.659,5.385,0.319,7.383c1.621,3.31,9.5,0.38,11.78-0.335
				c4.398-1.38,8.534-3.426,12.859-4.996c3.948-1.433,7.781-2.83,10.944-5.675c2.565-2.307,4.392-5.118,7.597-6.627
				c0.673-0.317-0.611-4.713,0-5c-4.811,2.264-7.497,7.281-12.265,9.8c-4.108,2.171-8.786,3.473-13.094,5.262
				c-2.996,1.244-17.871,7.79-18.211,1.003c-0.002,1.637-0.004,3.274-0.007,4.911c0.025-0.242,0.051-0.484,0.076-0.726
				C330.173,424.848,329.827,423.144,330,421.5L330,421.5z"/>
		</g>
	</g>
	<g>
		<g>
			<path fill="#FFFFFF" d="M358.75,425c5.394,1.875,10.994-2.332,15.542-4.772c5.843-3.136,10.797-6.167,15.458-10.978
				c4.632-4.781,10.321-8.359,14.576-13.524c4.186-5.08,4.004-12.347,8.174-17.476c0.83-1.022-0.8-4.015,0-5
				c-3.856,4.744-4.102,11.176-7.295,16.268c-3.487,5.56-9.669,9.236-14.38,13.651c-4.949,4.638-9.37,8.633-15.575,11.581
				c-4.966,2.359-10.688,7.27-16.5,5.25C359.233,420.168,358.2,424.809,358.75,425L358.75,425z"/>
		</g>
	</g>
	<g>
		<g>
			<path fill="#FFFFFF" d="M218.25,362c8.247,13.692,17.081,27.491,29.033,38.273c5.338,4.816,10.997,9.454,15.756,14.863
				c2.414,2.743,6.084,6.777,6.172,10.649c0.004-1.553,0.008-3.106,0.013-4.659c-1.392,8.146-17.136-3.843-19.454-5.774
				c-3.964-3.302-7.346-6.957-11.77-9.704c-4.915-3.052-10.202-5.255-14.75-8.899c0.79,0.633-0.836,4.33,0,5
				c5.355,4.29,11.761,6.825,17.432,10.632c5.271,3.538,9.416,8.598,14.675,12.242c2.928,2.029,10.388,6.485,13.539,2.618
				c1.094-1.342,0.378-5.083,0.321-6.674c-0.122-3.351-3.202-6.797-5.188-9.259c-4.437-5.502-10.098-10.088-15.347-14.781
				C236.14,385.313,226.878,371.324,218.25,357C218.976,358.206,217.504,360.761,218.25,362L218.25,362z"/>
		</g>
	</g>
	<g>
		<g>
			<path fill="#FFFFFF" d="M258,423.75c-4.674,5.554-14.69-1.588-19-4.344c-6.403-4.094-12.177-9.787-19-13.156
				c0.631,0.312-0.692,4.658,0,5c6.804,3.36,12.657,9.01,19,13.156c4.276,2.796,14.348,9.871,19,4.344
				C258.836,427.756,257.195,424.707,258,423.75L258,423.75z"/>
		</g>
	</g>
	<g>
		<g>
			<path fill="#FFFFFF" d="M237.478,421.988c-0.002,0.228-0.003,0.456-0.005,0.683c0.007-0.413,0.014-0.825,0.022-1.238
				c-0.964,4.472-9.515-1.016-11.466-2.147c-6.921-4.012-13.555-8.465-20.529-12.421c-8.022-4.55-13.15-13.099-18.269-20.504
				c-3.019-4.366-5.74-8.926-8.231-13.612c-2.693-5.065-5.686-9.422-6.5-15.25c0.227,1.629-0.229,3.361,0,5
				c0.716,5.129,3.032,9.487,5.663,13.878c3.009,5.023,5.783,10.121,9.068,14.984c6.006,8.891,11.788,16.874,21.269,22.197
				c6.776,3.804,13.086,8.374,19.913,12.063c3.533,1.909,9.068,4.691,9.108-1.11C237.527,423.761,237.5,418.924,237.478,421.988
				L237.478,421.988z"/>
		</g>
	</g>
	<g>
		<g>
			<path fill="#FFFFFF" d="M277.667,401.25c6.938-0.834,14.122-2.36,20.333-5.667c0.72-0.384-0.661-4.648,0-5
				c-6.211,3.307-13.395,4.833-20.333,5.667C277.432,396.278,277.827,401.231,277.667,401.25L277.667,401.25z"/>
		</g>
	</g>
	<g>
		<g>
			<path fill="#FFFFFF" d="M277.667,409.25c6.682,1.372,14.802-2.465,20.667-5.333c0.688-0.336-0.627-4.693,0-5
				c-5.865,2.868-13.985,6.705-20.667,5.333C277.959,404.31,277.302,409.175,277.667,409.25L277.667,409.25z"/>
		</g>
	</g>
	<g>
		<g>
			<path fill="#FFFFFF" d="M278,416.917c6.362,0.251,14.542-2.1,20-5.333c0.758-0.449-0.702-4.584,0-5
				c-5.458,3.233-13.638,5.584-20,5.333C278.028,411.918,277.897,416.913,278,416.917L278,416.917z"/>
		</g>
	</g>
	<g>
		<g>
			<path fill="#FFFFFF" d="M280.667,423.583c4.73,0.561,8.951-0.177,13.333-2c0.623-0.259-0.559-4.768,0-5
				c-4.382,1.823-8.603,2.561-13.333,2C280.824,418.602,280.435,423.556,280.667,423.583L280.667,423.583z"/>
		</g>
	</g>
</g>
</svg>
